<svg xmlns="http://www.w3.org/2000/svg" width="38" height="38" viewBox="0 0 38 38"><g><g><path fill="#e74c3c" d="M19 0c10.493 0 19 8.506 19 19 0 10.493-8.507 19-19 19C8.506 38 0 29.493 0 19 0 8.506 8.506 0 19 0zM3.8 19c0 3.668 1.3 7.033 3.463 9.66 1.68-2.784 5.747-8.133 13.086-10.191a76.27 76.27 0 0 0-1.47-2.97c-6.938 2.69-12.163 2.865-15.055 2.634-.016.287-.024.576-.024.867zM19 34.2c2.176 0 4.246-.458 6.117-1.282-.763-4.18-2.073-8.175-3.59-11.793-4.302 1.183-8.788 3.92-12.153 9.64A15.137 15.137 0 0 0 19 34.2zM12.51 5.25A15.233 15.233 0 0 0 4.228 15.4c3.863.039 9.006-.624 13.401-2.2a79.6 79.6 0 0 0-5.119-7.95zm18.126 3.97c-3.118 2.114-6.05 3.748-8.761 5.004a64.43 64.43 0 0 1 1.698 3.597c3.06-.386 6.586-.209 10.623.829a15.136 15.136 0 0 0-3.56-9.43zm-2.818 22.162a15.194 15.194 0 0 0 6.234-10.257c-1.866-.464-5.384-1.1-9.377-.616 2.105 5.469 2.945 9.756 3.143 10.873zM19 3.8c-1.244 0-2.452.149-3.609.43a54.415 54.415 0 0 1 5.251 7.703c3.965-1.874 6.543-3.872 7.731-4.9A15.135 15.135 0 0 0 19 3.8z"/></g></g></svg>