<svg xmlns="http://www.w3.org/2000/svg" width="64" height="64" viewBox="0 0 64 64"><g><g><path fill="#e74c3c" d="M10.327 2.033h33.05L37.18 8.23H12.393a6.197 6.197 0 0 0-6.197 6.196v37.18a6.197 6.197 0 0 0 6.197 6.197h37.18a6.197 6.197 0 0 0 6.197-6.197V26.82l6.197-6.197v33.05C61.967 59.375 57.342 64 51.639 64H10.327C4.624 64 0 59.376 0 53.672V12.361C0 6.657 4.624 2.033 10.327 2.033zM48.75 5.301l9.907 9.846-21.795 21.659-9.906-9.845zm11.415 8.344L50.258 3.8 53.23.846C54.324-.24 56.043-.296 57.069.723l6.191 6.153c1.026 1.02.97 2.728-.123 3.815zM25.577 28.333l9.906 9.845-13.869 3.938z"/></g></g></svg>