<svg xmlns="http://www.w3.org/2000/svg" width="51" height="64" viewBox="0 0 51 64"><g><g><path fill="#e74c3c" d="M14.875 53.333l-4.82 8.503c-1.173 2.069-3.773 2.777-5.805 1.583-2.033-1.194-2.73-3.84-1.556-5.908L8.5 49.066s.251 3.245 2.125 4.267c1.782 1.047 4.25 0 4.25 0zm-2.125-3.591C.553 42.382-3.626 26.082 3.416 13.336 10.458.588 26.053-3.78 38.25 3.58c9.94 5.998 14.555 17.935 12.109 29.048-1.193-6.928-4.592-18.24-14.234-23.263-13.241-6.898-24.438 2.082-27.625 7.7-4.95 8.725-.614 20.338 6.375 25.6 8.5 6.4 20.568 5.69 23.585-2.505 4.534-12.319-4.458-19.354-8.685-19.808-7.73-.832-9.825 2.95-11.302 6.723-3.598 9.19 7.026 9.19 7.026 9.19s-4.25-10.666 2.255-9.345c4.456.905 8.01 4.707 5.885 8.453-3.188 5.619-9.295 10.32-14.994 5.362C8.604 32 10.736 24.408 12.501 21.12c1.33-2.475 6.305-12.013 19.408-6.25 15.22 6.695 14.389 21.702 12.85 29.267-7.844 9.463-21.25 12.097-32.01 5.605z"/></g></g></svg>