<svg xmlns="http://www.w3.org/2000/svg" width="48" height="39" viewBox="0 0 48 39"><g><g><path fill="#e74c3c" d="M48 4.49l-4.5 4.488v.749c0 .82-.133 1.604-.324 2.365C43.07 18.267 41.099 26.457 33 32.92 17.068 45.635 0 34.417 0 34.417c13.5 0 13.5-4.49 13.5-4.49-3 0-9-5.985-9-5.985 1.5 1.497 4.5 0 4.5 0-7.5-4.489-7.5-8.978-7.5-8.978 1.5 1.496 4.5 0 4.5 0C-1.5 8.978 3 1.496 3 1.496c1.5 7.482 21 10.475 21 10.475l.248-.124C24.095 11.163 24 9.71 24 8.978 24 3.606 28.365 0 33.75 0c2.964 0 5.586 1.347 7.374 3.43L42 2.992 46.5 0l-3 5.985z"/></g></g></svg>